<?xml version="1.0" encoding="UTF-8" standalone="no"?>
<svg width="524px" height="232px" viewBox="0 0 524 232" version="1.1" xmlns="http://www.w3.org/2000/svg" xmlns:xlink="http://www.w3.org/1999/xlink">
    <!-- Generator: Sketch 42 (36781) - http://www.bohemiancoding.com/sketch -->
    <title>Artboard</title>
    <desc>Created with Sketch.</desc>
    <defs></defs>
    <g id="Page-1" stroke="none" stroke-width="1" fill="none" fill-rule="evenodd">
        <g id="Artboard">
            <g id="Group">
                <path d="M114.887,231.8828 L70.785,231.8828 C65.953,231.8828 62,227.9298 62,223.0978 L62,178.9958 C62,174.1638 65.953,170.2108 70.785,170.2108 L114.887,170.2108 C119.719,170.2108 123.672,174.1638 123.672,178.9958 L123.672,223.0978 C123.672,227.9298 119.719,231.8828 114.887,231.8828 Z" id="Fill-2" fill="#FF0000"></path>
                <path d="M100.8653,189.1911 C95.2483,192.4611 90.0373,193.2461 81.2993,195.0591 C88.2473,188.7531 92.1553,186.6451 100.7753,184.4221 L99.3973,182.8161 L99.3973,182.3241 C101.8173,182.6641 102.8123,183.7751 103.4163,184.2021 C104.8343,184.3751 106.2933,184.3101 107.3533,184.8051 C107.5833,186.0261 108.7933,186.8601 109.8213,187.3321 L113.5383,188.9171 C112.5783,191.2911 108.3323,190.2411 107.4533,189.9021 C105.0433,190.3941 101.7593,190.5871 100.8653,189.1911 M74.3593,211.4681 C74.6753,206.9211 76.9953,201.8611 79.6603,198.7131 C91.8983,196.1961 85.5823,197.8201 97.8603,193.7331 C99.0883,195.3411 101.9833,195.7261 107.2883,193.3001 C109.5363,193.9001 111.7793,194.2881 114.1533,193.8421 C115.8243,194.2271 117.3223,194.7781 119.1503,194.7781 C119.5263,194.1771 120.6523,192.7911 121.0283,191.4631 L120.6523,190.6901 L120.5053,189.3641 C119.8583,188.7241 118.9043,188.5301 117.6973,188.2521 C115.0343,186.2211 111.1993,184.5071 108.5783,183.0941 L107.5763,181.8331 C103.7293,181.0621 99.8963,180.1791 96.0683,178.5761 L95.6543,179.0681 L96.9003,182.0851 C86.3053,185.3121 83.5343,188.3131 76.9853,194.4851 C76.2813,194.4431 75.5903,194.3701 74.9023,194.2821 C71.4613,193.8451 68.1793,192.8331 64.6433,190.9241 C66.4803,194.6771 71.1513,196.8701 73.2993,197.8321 C73.4483,197.8991 73.6143,197.9741 73.7593,198.0381 C71.3383,200.7721 66.9913,206.0631 66.9913,213.9861 C66.9913,218.5671 69.2613,223.5361 74.0473,223.5181 C87.0503,223.5181 96.9393,208.6911 97.9813,207.4391 C99.0243,206.1881 99.0173,205.1491 99.0173,205.1491 C99.0173,205.1491 89.1973,217.7041 79.5103,217.7041 C75.5673,217.7761 74.1173,214.9451 74.3593,211.4681" id="Fill-4" fill="#FFFFFF"></path>
                <path d="M154.0237,225.7895 C142.6387,225.7895 134.2957,217.0215 134.2957,206.2025 L134.2957,206.0605 C134.2957,195.2415 142.5677,186.3325 154.1647,186.3325 C161.3057,186.3325 165.7617,188.7365 169.2967,192.6965 L162.7207,199.7675 C160.3167,197.2215 157.9127,195.5955 154.0937,195.5955 C148.7197,195.5955 144.9017,200.3325 144.9017,205.9195 L144.9017,206.0605 C144.9017,211.8585 148.6497,216.5265 154.5177,216.5265 C158.1247,216.5265 160.5997,214.9705 163.2157,212.4955 L169.5097,218.8585 C165.8317,222.8895 161.5897,225.7895 154.0237,225.7895" id="Fill-6" fill="#000000"></path>
                <path d="M195.3885,209.6656 C193.5495,208.8176 191.1455,208.2526 188.5295,208.2526 C183.9325,208.2526 181.1045,210.0906 181.1045,213.4856 L181.1045,213.6256 C181.1045,216.5266 183.5085,218.2236 186.9735,218.2236 C191.9945,218.2236 195.3885,215.4656 195.3885,211.5756 L195.3885,209.6656 Z M195.1765,224.9396 L195.1765,220.8396 C192.5595,223.7376 188.9525,225.6476 183.7205,225.6476 C176.5785,225.6476 170.7095,221.5466 170.7095,214.0506 L170.7095,213.9086 C170.7095,205.6356 177.0025,201.8176 185.9835,201.8176 C189.8015,201.8176 192.5595,202.4546 195.2465,203.3726 L195.2465,202.7376 C195.2465,198.2826 192.4895,195.8066 187.1155,195.8066 C183.0135,195.8066 180.1145,196.5846 176.6505,197.8586 L173.9625,189.6556 C178.1345,187.8176 182.2355,186.6146 188.6705,186.6146 C200.4085,186.6146 205.5705,192.6966 205.5705,202.9496 L205.5705,224.9396 L195.1765,224.9396 Z" id="Fill-8" fill="#000000"></path>
                <polygon id="Fill-10" fill="#000000" points="211.791 224.94 222.54 224.94 222.54 173.321 211.791 173.321"></polygon>
                <path d="M229.608,224.94 L240.357,224.94 L240.357,187.039 L229.608,187.039 L229.608,224.94 Z M229.326,182.867 L240.64,182.867 L240.64,173.321 L229.326,173.321 L229.326,182.867 Z" id="Fill-12" fill="#000000"></path>
                <path d="M263.8309,194.9593 C259.3759,194.9593 256.4769,198.1413 255.6279,203.0193 L271.8209,203.0193 C271.1839,198.2113 268.3569,194.9593 263.8309,194.9593 M282.1439,209.7383 L255.7699,209.7383 C256.8299,214.6163 260.2239,217.1613 265.0319,217.1613 C268.6389,217.1613 271.2559,216.0313 274.2249,213.2733 L280.3769,218.7163 C276.8409,223.1023 271.7509,225.7893 264.8909,225.7893 C253.5069,225.7893 245.0929,217.7983 245.0929,206.2023 L245.0929,206.0603 C245.0929,195.2423 252.7999,186.3323 263.8309,186.3323 C276.4879,186.3323 282.2859,196.1613 282.2859,206.9103 L282.2859,207.0503 C282.2859,208.1103 282.2159,208.7473 282.1439,209.7383" id="Fill-13" fill="#000000"></path>
                <path d="M310.7108,224.9397 L310.7108,203.7977 C310.7108,198.7057 308.3068,196.0897 304.2048,196.0897 C300.1038,196.0897 297.4878,198.7057 297.4878,203.7977 L297.4878,224.9397 L286.7388,224.9397 L286.7388,187.0387 L297.4878,187.0387 L297.4878,192.4127 C299.9618,189.2317 303.1448,186.3317 308.5898,186.3317 C316.7218,186.3317 321.4578,191.7067 321.4578,200.4037 L321.4578,224.9397 L310.7108,224.9397 Z" id="Fill-14" fill="#000000"></path>
                <path d="M340.0533,225.5771 C333.4773,225.5771 329.0223,222.9591 329.0223,214.1911 L329.0223,196.2321 L324.4963,196.2321 L324.4963,187.0391 L329.0223,187.0391 L329.0223,177.3511 L339.7703,177.3511 L339.7703,187.0391 L348.6803,187.0391 L348.6803,196.2321 L339.7703,196.2321 L339.7703,212.4231 C339.7703,214.8991 340.8313,216.1011 343.2353,216.1011 C345.2153,216.1011 346.9833,215.6061 348.5393,214.7581 L348.5393,223.3841 C346.2763,224.7271 343.6603,225.5771 340.0533,225.5771" id="Fill-15" fill="#000000"></path>
                <path d="M368.9028,194.9593 C364.4478,194.9593 361.5488,198.1413 360.6998,203.0193 L376.8928,203.0193 C376.2558,198.2113 373.4288,194.9593 368.9028,194.9593 M387.2158,209.7383 L360.8418,209.7383 C361.9018,214.6163 365.2958,217.1613 370.1038,217.1613 C373.7108,217.1613 376.3278,216.0313 379.2968,213.2733 L385.4488,218.7163 C381.9128,223.1023 376.8228,225.7893 369.9628,225.7893 C358.5788,225.7893 350.1648,217.7983 350.1648,206.2023 L350.1648,206.0603 C350.1648,195.2423 357.8718,186.3323 368.9028,186.3323 C381.5598,186.3323 387.3588,196.1613 387.3588,206.9103 L387.3588,207.0503 C387.3588,208.1103 387.2878,208.7473 387.2158,209.7383" id="Fill-16" fill="#000000"></path>
                <polygon id="Fill-17" fill="#000000" points="390.679 224.94 402.134 224.94 402.134 213.626 390.679 213.626"></polygon>
                <path d="M454.8842,224.9397 L454.8842,203.7977 C454.8842,198.7057 452.6212,196.0897 448.5912,196.0897 C444.5602,196.0897 442.0852,198.7057 442.0852,203.7977 L442.0852,224.9397 L431.3382,224.9397 L431.3382,203.7977 C431.3382,198.7057 429.0752,196.0897 425.0432,196.0897 C421.0132,196.0897 418.5392,198.7057 418.5392,203.7977 L418.5392,224.9397 L407.7902,224.9397 L407.7902,187.0387 L418.5392,187.0387 L418.5392,192.4127 C421.0132,189.2317 424.2662,186.3317 429.7112,186.3317 C434.6612,186.3317 438.4082,188.5237 440.3892,192.3427 C443.7122,188.4537 447.6712,186.3317 452.8342,186.3317 C460.8232,186.3317 465.6322,191.1407 465.6322,200.2627 L465.6322,224.9397 L454.8842,224.9397 Z" id="Fill-18" fill="#000000"></path>
                <polygon id="Fill-19" fill="#000000" points="494.7628 224.9397 487.1258 213.1307 479.4888 224.9397 468.2458 224.9397 481.5398 205.7077 468.7408 187.0387 480.2678 187.0387 487.3378 198.0697 494.4798 187.0387 505.7228 187.0387 492.9238 205.4947 506.2888 224.9397"></polygon>
                <path d="M286.2679,43.9703 C291.0409,40.6063 293.6709,35.2853 289.9519,31.2623 C288.9859,30.2463 284.9749,29.3683 279.8759,31.3913 C275.2509,33.2113 265.0479,42.4873 264.8329,50.7663 C264.7899,53.1853 278.9969,48.9463 286.2679,43.9703 M133.8319,103.8283 C133.8319,92.1903 157.3579,72.9583 170.4659,72.9583 C170.4659,77.0713 143.1479,102.8263 133.8319,103.8283 M146.2709,18.4883 L141.7699,13.4393 L141.7699,11.8943 C149.6759,12.9643 152.9259,16.4533 154.8989,17.7973 C159.5319,18.3413 164.2959,18.1373 167.7569,19.6923 C168.5089,23.5243 172.4619,26.1463 175.8219,27.6283 L187.9599,32.6103 C184.8219,40.0663 170.9549,36.7683 168.0859,35.7043 C160.2129,37.2533 149.4839,37.8553 146.5629,33.4683 C128.5379,45.1813 87.0589,63.6103 61.9679,65.6343 C83.2399,45.5883 118.1189,25.4723 146.2709,18.4883 M316.1739,72.2193 C326.5089,72.5653 299.8679,107.7383 283.7529,109.5583 C287.6829,97.2423 308.6399,71.8763 316.1739,72.2193 M498.0539,72.5653 C507.6329,72.6263 481.8119,107.5303 465.5479,109.4053 C469.4969,97.0443 490.3079,72.5653 498.0539,72.5653 M523.6979,68.9903 C523.6979,66.4443 521.8479,62.1393 516.2649,62.1393 C499.0099,62.1393 483.6979,67.0303 468.4199,78.8733 C457.5859,86.4093 444.3519,99.2523 436.9349,104.3753 C434.8179,105.9263 433.8049,100.5443 436.3339,96.9723 L456.4439,67.3783 L469.4969,66.5733 L473.9099,60.4423 L460.9429,61.3163 L471.3949,45.9853 L445.9919,50.7663 L437.2109,62.8153 L429.6509,63.4813 L425.3629,69.5243 L431.8309,68.7933 C431.2169,73.0373 414.4939,90.1003 410.4779,93.0683 C404.8459,97.1113 399.3329,100.7423 392.7329,104.4253 C391.5049,105.1763 390.3499,103.8953 390.7509,102.6973 C393.0879,96.2943 398.9819,89.5763 404.1779,82.8503 C407.8319,77.9333 414.4939,69.7403 416.4139,63.8123 C417.2809,61.1183 414.4939,61.1183 412.1779,61.9913 C398.6559,67.5043 382.0079,82.8983 363.1619,96.8963 C361.4059,98.1273 359.7689,95.4953 362.0229,92.1903 L382.0079,62.6673 L357.0299,67.4463 L345.8139,83.1123 C334.4049,99.1783 308.1669,119.0353 288.2399,125.2843 C287.2769,125.6383 282.6729,127.3713 281.5759,125.2323 C280.5629,123.0683 280.9749,119.6343 281.7969,116.8063 C297.4869,114.3273 341.8629,85.8113 342.1479,68.7933 C342.2939,62.9443 338.0869,61.9913 332.5029,61.9913 C320.8799,61.9303 304.0019,67.9823 295.1069,73.4253 C278.4399,83.4573 262.5399,103.6983 256.0769,105.0523 C255.8129,105.0523 254.9959,103.6253 254.9959,102.8263 C254.9959,101.2063 255.2569,99.7933 257.5749,96.5723 L279.8759,63.2893 L254.6449,67.7923 L247.2409,78.6103 C240.5069,88.3593 218.4769,104.3753 216.1189,104.3753 C215.3469,104.3753 213.9179,104.0453 213.9179,102.8263 C213.9179,99.1783 216.6459,95.1603 218.6919,92.1903 L255.5269,39.5333 L229.9569,43.6933 L204.0589,81.1683 C197.6599,90.4563 184.2069,101.3433 176.8909,105.3723 C176.3879,105.5113 174.5459,105.1763 174.5459,103.8283 C174.5459,96.6303 188.6829,78.8123 196.9339,66.4443 C183.2589,68.2533 170.8789,65.6343 166.1909,65.6343 C143.3469,65.7743 123.8359,81.5023 109.0669,98.9823 C102.8929,106.3253 78.0109,128.9953 63.9319,137.3243 C59.9979,139.6813 49.0449,145.9393 41.4259,146.4683 C33.7349,147.0193 29.6719,137.1243 29.6719,125.7673 C29.6719,108.3983 39.5989,90.3193 48.3059,80.4263 C78.8319,86.0903 112.2869,63.6753 136.3459,47.7383 C140.3539,52.7903 149.8129,54.0023 167.1419,46.3793 C174.4839,48.2643 181.8099,49.4863 189.5629,48.0833 C195.0229,49.2913 199.9169,51.0233 205.8859,51.0233 C207.1169,49.1383 210.7919,44.7823 212.0229,40.6063 L210.7919,38.1773 L210.3159,34.0123 C208.2009,32.0013 205.0879,31.3913 201.1409,30.5193 C192.4469,24.1403 179.9179,18.7533 171.3549,14.3123 L168.0859,10.3523 C155.5179,7.9283 142.9979,5.1553 130.4919,0.1173 L129.1369,1.6663 L133.2109,11.1443 C94.2679,23.5243 71.2059,37.8553 40.8139,64.1013 C27.0149,63.2893 14.3619,60.1073 0.5009,52.9113 C6.9379,65.5603 24.1499,72.6263 30.2809,75.2643 C22.3719,83.8513 0.3019,108.3353 0.3019,133.2273 C0.3019,147.6213 10.6139,163.1493 23.3519,163.1493 C47.4169,163.1493 79.0099,134.1093 96.5639,119.5573 C93.8649,126.2213 91.2079,131.7513 91.2079,138.9503 C91.2079,141.9683 93.4409,140.9603 94.1019,141.2953 C97.9249,143.3723 131.9239,110.2153 149.8129,102.5683 C150.4249,102.2913 151.8549,102.0163 152.8019,102.0803 C146.6059,109.9573 130.9669,127.9703 130.9669,138.1963 C130.9669,141.6973 133.8319,141.2953 133.8319,141.2953 C142.5949,139.1463 173.3279,115.1463 186.3129,106.6513 C178.4339,119.6343 171.7719,129.5993 172.0939,137.7233 C172.0939,139.0113 172.5209,141.2953 174.8329,141.2953 C179.2989,141.2953 223.4509,107.5803 229.5569,103.2303 C225.2779,109.3633 213.4419,128.2503 213.4419,135.6483 C213.4419,137.9383 214.5499,141.9683 216.8609,141.2953 C221.7389,140.0163 239.5009,126.6403 261.1139,110.2923 C258.0599,116.8843 255.5269,122.2693 255.5269,129.5993 C255.5269,136.5893 260.0339,141.5693 268.3169,141.2953 C285.9899,140.8213 312.1499,120.1823 328.6959,107.9373 C322.2499,118.5103 316.1739,125.4223 313.2539,135.1083 C312.1499,138.4673 312.5139,142.1043 315.0379,141.0433 C319.1749,139.4783 364.1779,101.5413 371.1069,98.9823 C371.3769,98.9303 375.8009,96.8963 372.6889,101.7553 C366.2879,111.4293 355.0709,122.7973 351.3359,133.4133 C350.5869,135.6483 349.4319,141.2953 354.0579,141.2953 C357.8579,141.2953 401.1019,105.0523 412.5229,97.8453 C405.5979,108.5403 393.5669,126.2213 392.8839,135.1793 C392.7329,137.0723 392.8839,141.5693 395.5169,141.2953 C400.9779,140.6993 437.6089,111.6323 444.4099,106.6513 C440.8769,112.1643 437.5429,121.0583 437.5429,129.7933 C437.5429,136.3763 442.5869,141.7823 448.6979,141.2953 C467.1889,139.8103 490.7659,122.7363 506.9589,110.6303 L508.0529,103.2943 C493.7639,113.9843 483.2449,120.7133 467.0529,125.8903 C465.5479,126.2213 462.8419,125.6383 462.8419,122.9943 C462.8419,120.3813 462.3699,118.7003 463.6489,116.8063 C474.6129,116.0083 523.6979,87.1643 523.6979,68.9903" id="Fill-20" fill="#FF0000"></path>
                <path d="M512.4716,137.2379 L513.4056,137.2379 C514.4946,137.2379 515.3776,136.8779 515.3776,136.0059 C515.3776,135.2359 514.8066,134.7229 513.5606,134.7229 C513.0426,134.7229 512.6786,134.7739 512.4716,134.8259 L512.4716,137.2379 Z M512.4196,142.0109 L510.4486,142.0109 L510.4486,133.5939 C511.2266,133.4389 512.3156,133.3369 513.7166,133.3369 C515.3256,133.3369 516.0516,133.5939 516.6746,133.9529 C517.1416,134.3119 517.5046,134.9799 517.5046,135.8009 C517.5046,136.7239 516.7776,137.4429 515.7406,137.7509 L515.7406,137.8539 C516.5706,138.1619 517.0376,138.7779 517.2966,139.9069 C517.5566,141.1899 517.7116,141.7029 517.9196,142.0109 L515.7926,142.0109 C515.5326,141.7029 515.3776,140.9329 515.1176,139.9579 C514.9626,139.0349 514.4436,138.6239 513.3536,138.6239 L512.4196,138.6239 L512.4196,142.0109 Z M507.1796,137.5969 C507.1796,141.3439 509.9806,144.3209 513.8206,144.3209 C517.5566,144.3209 520.3066,141.3439 520.3066,137.6479 C520.3066,133.9019 517.5566,130.8739 513.7686,130.8739 C509.9806,130.8739 507.1796,133.9019 507.1796,137.5969 L507.1796,137.5969 Z M522.4856,137.5969 C522.4856,142.3709 518.6976,146.1169 513.7686,146.1169 C508.8916,146.1169 504.9996,142.3709 504.9996,137.5969 C504.9996,132.9259 508.8916,129.1799 513.7686,129.1799 C518.6976,129.1799 522.4856,132.9259 522.4856,137.5969 L522.4856,137.5969 Z" id="Fill-21" fill="#FF0000"></path>
            </g>
        </g>
    </g>
</svg>